<svg xmlns="http://www.w3.org/2000/svg" width="62.357" height="97.157" viewBox="0 0 62.357 97.157">
  <g id="logo" transform="translate(-0.044 0.039)">
    <g id="Group_40" data-name="Group 40" transform="translate(0.044 -0.039)">
      <path id="Path_226" data-name="Path 226" d="M30.909,68.031c.494-.494.987-.74,1.6.123a6.881,6.881,0,0,1,1.234,3.455c0,.37-.494.987.247,1.234.37.123.74-.123,1.111-.37a1.319,1.319,0,0,0,.617-1.357,1.989,1.989,0,0,0-.494-.864.935.935,0,0,1,0-1.234c1.357-1.727,1.851-1.727,2.838.247a7.073,7.073,0,0,1,.494,1.727c0,1.234.864,1.6,1.851,1.974a1.756,1.756,0,0,0,1.974-.617c.617-.74.37-1.481,0-2.344-.617-1.234.74-1.727,1.234-2.344.617-.74.864.247,1.111.617a4.656,4.656,0,0,1,.123,5.923,5.346,5.346,0,0,1-6.416,1.481,2.222,2.222,0,0,0-2.591,0,.935.935,0,0,1-.494.247c-2.468-.247-4.936.123-7.4-.123-.494,0-.864-.37-1.357-.123a4.38,4.38,0,0,1-5.676-.987,4.8,4.8,0,0,1-.37-5.676c2.344-3.455,4.812-6.663,7.28-9.995,0-.123.123-.123.37-.123.123,2.344.37,4.442-1.481,6.293a7.491,7.491,0,0,0-.864,1.234c-.123,1.234-1.111,2.1-1.6,3.085a5.669,5.669,0,0,0-.864,1.974A1.169,1.169,0,0,0,24,72.843a1.106,1.106,0,0,0,1.357-.123,1.143,1.143,0,0,0,.37-1.481,2.581,2.581,0,0,0-.494-.74,1.9,1.9,0,0,1,.494-2.838c.987-.617,1.6.123,2.1.74a6.213,6.213,0,0,1,1.357,3.208c0,.37-.123.864.494.864s.864-.37.864-.987c0-.247.123-.494-.123-.74C29.182,69.512,30.169,68.771,30.909,68.031Z" transform="translate(4.573 13.825)" fill="#2d3d8a"/>
      <path id="Path_227" data-name="Path 227" d="M17.881,74.631a1.484,1.484,0,0,1-.987-.247c-1.851-1.111-3.7-.617-5.676-.123-3.578.74-7.157.247-10.735.37-.494,0-.494-.247-.37-.617a3.556,3.556,0,0,1,3.332-2.468h7.28c1.6,0,2.1-.864,1.234-2.221-.494-.74,0-.987.37-1.357.494-.494.864-1.6,1.727-1.357s1.234,1.234,1.481,2.1c.37,1.234.494,2.344,1.974,2.715a2.169,2.169,0,0,0,2.344-.617,1.528,1.528,0,0,0,.123-2.1c-.37-.617.37-2.221,1.234-2.591s.987.494,1.357.987a4.317,4.317,0,0,1,.494,4.812C21.83,73.891,20.1,74.508,17.881,74.631Z" transform="translate(-0.044 15.493)" fill="#2d3d8a"/>
      <path id="Path_228" data-name="Path 228" d="M43.87,74.142c-2.344-.74-3.332-4.565-1.6-6.787a4.542,4.542,0,0,1,6.17-1.111,4.7,4.7,0,0,1,.987,6.91,102.328,102.328,0,0,1-7.774,8.637c0-1.974-.74-4.2,1.357-5.676.37-.37.864-.74.864-1.234A14.045,14.045,0,0,1,46.091,71.8c.123-.247.37-.37.617-.617a1.378,1.378,0,0,0-.123-1.974,1.008,1.008,0,0,0-1.481,0,1.337,1.337,0,0,0-.247,1.851C45.6,72.538,45.474,72.785,43.87,74.142Z" transform="translate(9.627 15.364)" fill="#2d3d8a"/>
      <path id="Path_229" data-name="Path 229" d="M17.477,10.5C16.12,9.14,14.763,7.659,13.405,6.3c-.74-.74-.74-1.111,0-1.727,1.481-1.357,2.838-2.715,4.2-4.2.494-.617.987-.494,1.481,0C20.562,1.86,21.919,3.341,23.4,4.7c.617.617.37,1.111-.123,1.6A43.794,43.794,0,0,0,19.2,10.5C18.588,11.238,18.094,11.361,17.477,10.5Z" transform="translate(2.951 0.039)" fill="#2d3d8a"/>
      <path id="Path_230" data-name="Path 230" d="M42.06,66.14a2.581,2.581,0,0,0-.74-.494l-3.332-3.332c-.617-.617-.617-.987,0-1.6l3.332-3.332c.494-.494.864-.617,1.481,0a45.635,45.635,0,0,0,3.455,3.455.824.824,0,0,1,.123,1.234l-3.7,3.7C42.43,66.017,42.183,66.017,42.06,66.14Z" transform="translate(8.723 13.372)" fill="#2d3d8a"/>
      <path id="Path_231" data-name="Path 231" d="M2.574,66.6a7.064,7.064,0,0,1,1.974,1.851c0,.247-1.851,1.851-2.1,1.727A3.852,3.852,0,0,1,.6,68.327C.6,68.2,2.2,66.6,2.574,66.6Z" transform="translate(0.086 15.627)" fill="#2d3d8a"/>
      <path id="Path_232" data-name="Path 232" d="M7.925,68.429A5.712,5.712,0,0,1,6.074,70.4,5.712,5.712,0,0,1,4.1,68.552,6.593,6.593,0,0,1,5.951,66.7,4.489,4.489,0,0,1,7.925,68.429Z" transform="translate(0.904 15.649)" fill="#2d3d8a"/>
      <path id="Path_233" data-name="Path 233" d="M38.926,75.628c0,.37-1.6,1.974-1.974,1.851A3.628,3.628,0,0,1,35.1,75.751c-.123-.247,1.481-1.851,1.851-1.851C37.446,73.9,38.926,75.381,38.926,75.628Z" transform="translate(8.154 17.334)" fill="#2d3d8a"/>
      <path id="Path_234" data-name="Path 234" d="M17.3,77.583a6.267,6.267,0,0,1-2.1-1.851A13.208,13.208,0,0,1,17.175,74c.247-.247,1.974,1.357,1.974,1.727S17.669,77.46,17.3,77.583Z" transform="translate(3.5 17.353)" fill="#2d3d8a"/>
      <path id="Path_235" data-name="Path 235" d="M15.7,75.605c0,.37-1.6,2.1-1.851,1.974A4.182,4.182,0,0,1,12,75.852c-.123-.247,1.6-1.974,1.851-1.851C14.592,74.248,15.086,74.988,15.7,75.605Z" transform="translate(2.751 17.356)" fill="#2d3d8a"/>
      <g id="Group_37" data-name="Group 37" transform="translate(1.322 26.741)">
        <g id="Group_36" data-name="Group 36">
          <path id="Path_236" data-name="Path 236" d="M57.486,42.939c-.494-.494-.74-.37-1.111.123-1.234,1.481-2.468,3.085-3.7,4.566-.74.74-.74,1.234.123,1.974a3.441,3.441,0,0,1,0,5.306c-1.727,1.6-6.17.74-7.4-1.234a3.6,3.6,0,0,1-.247-1.111,14.452,14.452,0,0,0-4.319-9.131c-.617-.617-.987-.494-1.481.123C38.361,44.79,37.5,45.9,36.51,47.134a8.3,8.3,0,0,0-1.357,1.727c-.247.864.864,1.111,1.357,1.727,1.727,2.221.864,4.936-1.6,5.306-.74.123-1.111,0-.987-.864.74-4.565-1.111-8.144-4.072-11.352-.617-.74-1.111-.864-1.727,0-1.234,1.6-2.468,3.085-3.825,4.689-.37.37-.617.74-.123,1.234l.37.37a3.361,3.361,0,0,1,.74,4.689,1.5,1.5,0,0,1-1.481.74c-.617-.247-.494-.74-.494-1.234a9.146,9.146,0,0,0-.123-2.591c-.617-3.455-2.715-5.923-5.429-8.02-.617-.494-1.357-1.111-2.221-.123a10.366,10.366,0,0,1-2.221,2.961,5.479,5.479,0,0,0-.987,1.357,1.7,1.7,0,0,0,.74,2.344,2.421,2.421,0,0,1,1.111,1.111c.123.247.37.37.494.617A3.159,3.159,0,0,1,14.3,55.9a3.58,3.58,0,0,1-3.949.37,3.446,3.446,0,0,1-.74-4.072,9.642,9.642,0,0,1,1.357-2.468c2.344-3.7,4.689-7.4,7.157-10.982A39.351,39.351,0,0,1,20.962,34.8a2.6,2.6,0,0,0,.617-1.6c.247-3.578,0-7.157.247-10.735,0-.247,0-.617-.247-.74-.37-.247-.617.123-.864.247a5.224,5.224,0,0,0-.617.864c-3.085,4.072-6.046,8.267-9.131,12.339-2.221,3.085-4.689,5.923-6.54,9.254-.123.123-.123.247-.247.247A10.91,10.91,0,0,0,2.454,47.5,34.607,34.607,0,0,0,1.343,51.33C.6,55.9,1.59,59.72,5.538,62.558c3.825,2.838,7.9,3.208,12.092.74a1.517,1.517,0,0,1,1.6-.123,10.475,10.475,0,0,0,9.008-.123,2.233,2.233,0,0,1,1.974-.123,10.694,10.694,0,0,0,9.995-.987,1.5,1.5,0,0,1,1.974,0,13.2,13.2,0,0,0,12.092,1.727c3.7-1.357,6.416-3.7,7.527-7.65C63.039,50.466,60.818,46.518,57.486,42.939ZM9.857,63.052C4.675,61.818,1.22,57.5,1.96,51.823c.494-3.455,2.468-6.17,4.442-8.761,4.319-5.8,8.514-11.6,12.833-17.4.247-.37.494-.617.987-1.234v8.391a1.881,1.881,0,0,1-.74,1.357c-3.825,5.182-7.774,10.365-10.858,16.164a6.529,6.529,0,0,0-1.111,3.7,4.2,4.2,0,0,0,3.332,3.825,4.565,4.565,0,0,0,4.812-7.033,3.842,3.842,0,0,0-.864-1.111c-1.851-.987-1.111-1.974-.123-3.208,1.974-2.591,1.974-2.591,4.2-.247C21.949,49.6,22.69,53.8,20.839,57.5,18.618,61.818,14.423,64.163,9.857,63.052Zm10.612-.864c-.987-.247-1.6-.617-.494-1.6.247-.123.37-.494.494-.74a6.784,6.784,0,0,1,4.442-3.7c2.591-.617,2.961-4.2,1.111-6.416-.864-.987-.74-1.481.123-2.344s1.481-1.851,2.221-2.715q.555-.74,1.111,0a13.162,13.162,0,0,1,3.455,8.144A9.739,9.739,0,0,1,20.469,62.188Zm9.748-.987a12.373,12.373,0,0,0,2.838-3.825c.247-.494.617-.494,1.111-.494a3.807,3.807,0,0,0,3.949-2.468,4.187,4.187,0,0,0-.987-4.689c-.74-.74-.617-1.234,0-1.974a26.034,26.034,0,0,0,2.344-2.838c.37-.37.617-.74,1.111-.247,2.961,3.455,4.812,8.02,1.851,12.833C40.088,61.571,34.042,63.422,30.217,61.2Zm30.108-5.182c-1.851,4.689-5.923,6.663-10.365,6.91a15.343,15.343,0,0,1-7.4-2.1c-.617-.37-.864-.617-.247-1.357a8.524,8.524,0,0,0,2.1-3.7c.247-.864.617-.74,1.234-.37,1.974,1.111,3.949,2.1,6.293,1.111a4.362,4.362,0,0,0,1.851-7.033c-.617-.74-.617-1.234,0-1.851a26.034,26.034,0,0,0,2.344-2.838c.494-.74.987-.617,1.481,0C60.448,48,62.052,51.7,60.324,56.019Z" transform="translate(-1.116 -21.633)" fill="#2d3d8a"/>
        </g>
      </g>
      <g id="Group_39" data-name="Group 39" transform="translate(1.673 11.869)">
        <g id="Group_38" data-name="Group 38">
          <path id="Path_237" data-name="Path 237" d="M21.266,10.468c0-.37,0-.74-.37-.864s-.617.247-.74.494c-4.072,5.553-8.144,10.858-12.463,16.288C5.842,28.73,4.115,31.2,2.14,33.543a3.113,3.113,0,0,0-.74,2.1c0,3.085.247,6.046.247,9.131a13.546,13.546,0,0,0,.247,3.085,17.917,17.917,0,0,0,2.961-3.208c5.059-6.416,9.748-13.2,14.807-19.619a3.811,3.811,0,0,0,.864-1.727l.247-.247a1.705,1.705,0,0,0,.74-1.357C21.389,18,21.266,14.17,21.266,10.468ZM20.156,21.574c0,1.111-1.111,1.851-1.727,2.715C13.616,30.7,8.8,37.244,3.991,43.661a1.311,1.311,0,0,1-1.357.864c0-3.085-.123-6.17,0-9.254.123-1.234,1.357-1.974,2.1-2.961,4.812-6.293,9.5-12.463,14.313-18.756.247-.247.37-.74,1.111-.864Q20.156,17.132,20.156,21.574Z" transform="translate(-1.4 -9.58)" fill="#2d3d8a"/>
        </g>
      </g>
    </g>
  </g>
</svg>
